<mxfile host="app.diagrams.net" agent="Mozilla/5.0 (Windows NT 10.0; Win64; x64) AppleWebKit/537.36 (KHTML, like Gecko) Chrome/133.0.0.0 Safari/537.36" version="26.0.11">
  <diagram name="Page-1" id="fd0BKbMkZNCjQAa6GCeJ">
    <mxGraphModel dx="1434" dy="738" grid="1" gridSize="10" guides="1" tooltips="1" connect="1" arrows="1" fold="1" page="1" pageScale="1" pageWidth="827" pageHeight="1169" math="0" shadow="0">
      <root>
        <mxCell id="0" />
        <mxCell id="1" parent="0" />
        <mxCell id="IMV991JVtr9X0o2-LDnY-48" value="&lt;div&gt;API&lt;/div&gt;&lt;div&gt;&lt;br&gt;&lt;/div&gt;&lt;div&gt;&lt;br&gt;&lt;/div&gt;&lt;div&gt;&lt;br&gt;&lt;/div&gt;&lt;div&gt;&lt;br&gt;&lt;/div&gt;&lt;div&gt;&lt;br&gt;&lt;/div&gt;&lt;div&gt;&lt;br&gt;&lt;/div&gt;&lt;div&gt;&lt;br&gt;&lt;/div&gt;&lt;div&gt;&lt;br&gt;&lt;/div&gt;&lt;div&gt;&lt;br&gt;&lt;/div&gt;" style="rounded=1;whiteSpace=wrap;html=1;" parent="1" vertex="1">
          <mxGeometry x="760" y="350" width="160" height="170" as="geometry" />
        </mxCell>
        <mxCell id="IMV991JVtr9X0o2-LDnY-51" value="Apache ECharts&lt;br&gt;&lt;div&gt;&lt;br&gt;&lt;/div&gt;&lt;div&gt;&lt;br&gt;&lt;/div&gt;&lt;div&gt;&lt;br&gt;&lt;/div&gt;&lt;div&gt;&lt;br&gt;&lt;/div&gt;&lt;div&gt;&lt;br&gt;&lt;/div&gt;" style="rounded=0;whiteSpace=wrap;html=1;" parent="1" vertex="1">
          <mxGeometry x="780" y="390" width="120" height="100" as="geometry" />
        </mxCell>
        <mxCell id="IMV991JVtr9X0o2-LDnY-1" value="&lt;div&gt;DataBase&lt;/div&gt;&lt;div&gt;&lt;br&gt;&lt;/div&gt;&lt;div&gt;&lt;br&gt;&lt;/div&gt;&lt;div&gt;&lt;br&gt;&lt;/div&gt;&lt;div&gt;&lt;br&gt;&lt;/div&gt;&lt;div&gt;&lt;br&gt;&lt;/div&gt;&lt;div&gt;&lt;br&gt;&lt;/div&gt;&lt;div&gt;&lt;br&gt;&lt;/div&gt;" style="rounded=1;whiteSpace=wrap;html=1;" parent="1" vertex="1">
          <mxGeometry x="760" y="160" width="160" height="160" as="geometry" />
        </mxCell>
        <mxCell id="IMV991JVtr9X0o2-LDnY-10" style="edgeStyle=orthogonalEdgeStyle;rounded=0;orthogonalLoop=1;jettySize=auto;html=1;entryX=0;entryY=0.5;entryDx=0;entryDy=0;" parent="1" source="IMV991JVtr9X0o2-LDnY-4" target="IMV991JVtr9X0o2-LDnY-6" edge="1">
          <mxGeometry relative="1" as="geometry" />
        </mxCell>
        <mxCell id="IMV991JVtr9X0o2-LDnY-11" value="use" style="edgeLabel;html=1;align=center;verticalAlign=middle;resizable=0;points=[];" parent="IMV991JVtr9X0o2-LDnY-10" vertex="1" connectable="0">
          <mxGeometry x="-0.0857" y="-2" relative="1" as="geometry">
            <mxPoint as="offset" />
          </mxGeometry>
        </mxCell>
        <mxCell id="IMV991JVtr9X0o2-LDnY-4" value="User" style="shape=umlActor;verticalLabelPosition=bottom;verticalAlign=top;html=1;outlineConnect=0;" parent="1" vertex="1">
          <mxGeometry x="20" y="310" width="30" height="60" as="geometry" />
        </mxCell>
        <mxCell id="IMV991JVtr9X0o2-LDnY-5" value="middleware&lt;br&gt;&lt;div&gt;&lt;br&gt;&lt;/div&gt;&lt;div&gt;&lt;br&gt;&lt;/div&gt;&lt;div&gt;&lt;br&gt;&lt;/div&gt;&lt;div&gt;&lt;br&gt;&lt;/div&gt;&lt;div&gt;&lt;br&gt;&lt;/div&gt;&lt;div&gt;&lt;br&gt;&lt;/div&gt;&lt;div&gt;&lt;br&gt;&lt;/div&gt;&lt;div&gt;&lt;br&gt;&lt;/div&gt;&lt;div&gt;&lt;br&gt;&lt;/div&gt;&lt;div&gt;&lt;br&gt;&lt;/div&gt;&lt;div&gt;&lt;br&gt;&lt;/div&gt;&lt;div&gt;&lt;br&gt;&lt;/div&gt;&lt;div&gt;&lt;br&gt;&lt;/div&gt;&lt;div&gt;&lt;br&gt;&lt;/div&gt;&lt;div&gt;&lt;br&gt;&lt;/div&gt;" style="rounded=1;whiteSpace=wrap;html=1;" parent="1" vertex="1">
          <mxGeometry x="361" y="160" width="310" height="280" as="geometry" />
        </mxCell>
        <mxCell id="IMV991JVtr9X0o2-LDnY-6" value="Client/Browser&lt;div&gt;&lt;br&gt;&lt;/div&gt;&lt;div&gt;&lt;br&gt;&lt;/div&gt;&lt;div&gt;&lt;br&gt;&lt;/div&gt;&lt;div&gt;&lt;br&gt;&lt;/div&gt;&lt;div&gt;&lt;br&gt;&lt;/div&gt;&lt;div&gt;&lt;br&gt;&lt;/div&gt;&lt;div&gt;&lt;br&gt;&lt;/div&gt;&lt;div&gt;&lt;br&gt;&lt;/div&gt;&lt;div&gt;&lt;br&gt;&lt;/div&gt;&lt;div&gt;&lt;br&gt;&lt;/div&gt;&lt;div&gt;&lt;br&gt;&lt;/div&gt;&lt;div&gt;&lt;br&gt;&lt;/div&gt;&lt;div&gt;&lt;br&gt;&lt;/div&gt;&lt;div&gt;&lt;br&gt;&lt;/div&gt;&lt;div&gt;&lt;br&gt;&lt;/div&gt;&lt;div&gt;&lt;br&gt;&lt;/div&gt;&lt;div&gt;&lt;br&gt;&lt;/div&gt;&lt;div&gt;&lt;br&gt;&lt;/div&gt;&lt;div&gt;&lt;br&gt;&lt;/div&gt;&lt;div&gt;&lt;br&gt;&lt;/div&gt;&lt;div&gt;&lt;br&gt;&lt;/div&gt;&lt;div&gt;&lt;br&gt;&lt;/div&gt;" style="rounded=1;whiteSpace=wrap;html=1;" parent="1" vertex="1">
          <mxGeometry x="120" y="160" width="150" height="360" as="geometry" />
        </mxCell>
        <mxCell id="IMV991JVtr9X0o2-LDnY-7" value="django&lt;div&gt;&lt;br&gt;&lt;/div&gt;&lt;div&gt;&lt;br&gt;&lt;/div&gt;&lt;div&gt;&lt;br&gt;&lt;/div&gt;&lt;div&gt;&lt;br&gt;&lt;/div&gt;&lt;div&gt;&lt;br&gt;&lt;/div&gt;&lt;div&gt;&lt;br&gt;&lt;/div&gt;&lt;div&gt;&lt;br&gt;&lt;/div&gt;&lt;div&gt;&lt;br&gt;&lt;/div&gt;&lt;div&gt;&lt;br&gt;&lt;/div&gt;&lt;div&gt;&lt;br&gt;&lt;/div&gt;" style="rounded=0;whiteSpace=wrap;html=1;" parent="1" vertex="1">
          <mxGeometry x="390" y="218" width="250" height="180" as="geometry" />
        </mxCell>
        <mxCell id="IMV991JVtr9X0o2-LDnY-12" value="html" style="rounded=0;whiteSpace=wrap;html=1;" parent="1" vertex="1">
          <mxGeometry x="135" y="280" width="120" height="60" as="geometry" />
        </mxCell>
        <mxCell id="IMV991JVtr9X0o2-LDnY-13" value="css" style="rounded=0;whiteSpace=wrap;html=1;" parent="1" vertex="1">
          <mxGeometry x="135" y="360" width="120" height="60" as="geometry" />
        </mxCell>
        <mxCell id="y2yLQSYUWb60mJqoII2E-27" style="edgeStyle=orthogonalEdgeStyle;rounded=0;orthogonalLoop=1;jettySize=auto;html=1;" parent="1" edge="1">
          <mxGeometry relative="1" as="geometry">
            <mxPoint x="255" y="480" as="sourcePoint" />
            <mxPoint x="780" y="480" as="targetPoint" />
            <Array as="points">
              <mxPoint x="780" y="480" />
            </Array>
          </mxGeometry>
        </mxCell>
        <mxCell id="y2yLQSYUWb60mJqoII2E-30" value="request" style="edgeLabel;html=1;align=center;verticalAlign=middle;resizable=0;points=[];" parent="y2yLQSYUWb60mJqoII2E-27" vertex="1" connectable="0">
          <mxGeometry x="-0.0222" y="-1" relative="1" as="geometry">
            <mxPoint as="offset" />
          </mxGeometry>
        </mxCell>
        <mxCell id="IMV991JVtr9X0o2-LDnY-14" value="javascript" style="rounded=0;whiteSpace=wrap;html=1;" parent="1" vertex="1">
          <mxGeometry x="135" y="445" width="120" height="60" as="geometry" />
        </mxCell>
        <mxCell id="IMV991JVtr9X0o2-LDnY-20" value="bootstrap" style="rounded=0;whiteSpace=wrap;html=1;" parent="1" vertex="1">
          <mxGeometry x="135" y="200" width="120" height="60" as="geometry" />
        </mxCell>
        <mxCell id="IMV991JVtr9X0o2-LDnY-35" style="edgeStyle=orthogonalEdgeStyle;rounded=0;orthogonalLoop=1;jettySize=auto;html=1;" parent="1" edge="1">
          <mxGeometry relative="1" as="geometry">
            <mxPoint x="479" y="343" as="sourcePoint" />
            <mxPoint x="539" y="343" as="targetPoint" />
          </mxGeometry>
        </mxCell>
        <mxCell id="IMV991JVtr9X0o2-LDnY-36" value="call" style="edgeLabel;html=1;align=center;verticalAlign=middle;resizable=0;points=[];" parent="IMV991JVtr9X0o2-LDnY-35" vertex="1" connectable="0">
          <mxGeometry x="-0.2123" y="4" relative="1" as="geometry">
            <mxPoint as="offset" />
          </mxGeometry>
        </mxCell>
        <mxCell id="IMV991JVtr9X0o2-LDnY-24" value="views" style="rounded=0;whiteSpace=wrap;html=1;" parent="1" vertex="1">
          <mxGeometry x="413" y="338" width="66" height="30" as="geometry" />
        </mxCell>
        <mxCell id="IMV991JVtr9X0o2-LDnY-32" style="edgeStyle=orthogonalEdgeStyle;rounded=0;orthogonalLoop=1;jettySize=auto;html=1;" parent="1" source="IMV991JVtr9X0o2-LDnY-25" target="IMV991JVtr9X0o2-LDnY-24" edge="1">
          <mxGeometry relative="1" as="geometry" />
        </mxCell>
        <mxCell id="IMV991JVtr9X0o2-LDnY-33" value="mapping" style="edgeLabel;html=1;align=center;verticalAlign=middle;resizable=0;points=[];" parent="IMV991JVtr9X0o2-LDnY-32" vertex="1" connectable="0">
          <mxGeometry x="-0.1744" y="3" relative="1" as="geometry">
            <mxPoint as="offset" />
          </mxGeometry>
        </mxCell>
        <mxCell id="IMV991JVtr9X0o2-LDnY-25" value="urls" style="rounded=0;whiteSpace=wrap;html=1;" parent="1" vertex="1">
          <mxGeometry x="413" y="238" width="66" height="30" as="geometry" />
        </mxCell>
        <mxCell id="IMV991JVtr9X0o2-LDnY-44" style="edgeStyle=orthogonalEdgeStyle;rounded=0;orthogonalLoop=1;jettySize=auto;html=1;entryX=1;entryY=0.5;entryDx=0;entryDy=0;" parent="1" edge="1">
          <mxGeometry relative="1" as="geometry">
            <mxPoint x="539" y="358" as="sourcePoint" />
            <mxPoint x="479" y="358" as="targetPoint" />
          </mxGeometry>
        </mxCell>
        <mxCell id="IMV991JVtr9X0o2-LDnY-45" value="return" style="edgeLabel;html=1;align=center;verticalAlign=middle;resizable=0;points=[];" parent="IMV991JVtr9X0o2-LDnY-44" vertex="1" connectable="0">
          <mxGeometry x="-0.0333" y="-3" relative="1" as="geometry">
            <mxPoint as="offset" />
          </mxGeometry>
        </mxCell>
        <mxCell id="y2yLQSYUWb60mJqoII2E-7" style="edgeStyle=orthogonalEdgeStyle;rounded=0;orthogonalLoop=1;jettySize=auto;html=1;exitX=0.5;exitY=0;exitDx=0;exitDy=0;" parent="1" source="IMV991JVtr9X0o2-LDnY-34" edge="1">
          <mxGeometry relative="1" as="geometry">
            <mxPoint x="560" y="390" as="sourcePoint" />
            <mxPoint x="760" y="240" as="targetPoint" />
            <Array as="points">
              <mxPoint x="572" y="240" />
              <mxPoint x="760" y="240" />
            </Array>
          </mxGeometry>
        </mxCell>
        <mxCell id="y2yLQSYUWb60mJqoII2E-8" value="queries" style="edgeLabel;html=1;align=center;verticalAlign=middle;resizable=0;points=[];" parent="y2yLQSYUWb60mJqoII2E-7" vertex="1" connectable="0">
          <mxGeometry x="0.7304" y="1" relative="1" as="geometry">
            <mxPoint as="offset" />
          </mxGeometry>
        </mxCell>
        <mxCell id="IMV991JVtr9X0o2-LDnY-34" value="models" style="rounded=0;whiteSpace=wrap;html=1;" parent="1" vertex="1">
          <mxGeometry x="539" y="338" width="66" height="30" as="geometry" />
        </mxCell>
        <mxCell id="IMV991JVtr9X0o2-LDnY-37" value="MySQL" style="rounded=0;whiteSpace=wrap;html=1;" parent="1" vertex="1">
          <mxGeometry x="780" y="230" width="120" height="60" as="geometry" />
        </mxCell>
        <mxCell id="IMV991JVtr9X0o2-LDnY-49" value="visualization tools" style="rounded=0;whiteSpace=wrap;html=1;" parent="1" vertex="1">
          <mxGeometry x="788.5" y="420" width="103" height="52.5" as="geometry" />
        </mxCell>
        <mxCell id="y2yLQSYUWb60mJqoII2E-2" style="edgeStyle=orthogonalEdgeStyle;rounded=0;orthogonalLoop=1;jettySize=auto;html=1;entryX=0;entryY=0.5;entryDx=0;entryDy=0;" parent="1" source="IMV991JVtr9X0o2-LDnY-6" target="IMV991JVtr9X0o2-LDnY-25" edge="1">
          <mxGeometry relative="1" as="geometry">
            <Array as="points">
              <mxPoint x="340" y="253" />
              <mxPoint x="340" y="253" />
            </Array>
          </mxGeometry>
        </mxCell>
        <mxCell id="y2yLQSYUWb60mJqoII2E-3" value="request" style="edgeLabel;html=1;align=center;verticalAlign=middle;resizable=0;points=[];" parent="y2yLQSYUWb60mJqoII2E-2" vertex="1" connectable="0">
          <mxGeometry x="-0.2361" y="1" relative="1" as="geometry">
            <mxPoint as="offset" />
          </mxGeometry>
        </mxCell>
        <mxCell id="y2yLQSYUWb60mJqoII2E-4" style="edgeStyle=orthogonalEdgeStyle;rounded=0;orthogonalLoop=1;jettySize=auto;html=1;" parent="1" source="IMV991JVtr9X0o2-LDnY-24" edge="1">
          <mxGeometry relative="1" as="geometry">
            <mxPoint x="270" y="353" as="targetPoint" />
            <Array as="points">
              <mxPoint x="270" y="353" />
            </Array>
          </mxGeometry>
        </mxCell>
        <mxCell id="y2yLQSYUWb60mJqoII2E-5" value="response" style="edgeLabel;html=1;align=center;verticalAlign=middle;resizable=0;points=[];" parent="y2yLQSYUWb60mJqoII2E-4" vertex="1" connectable="0">
          <mxGeometry x="0.3137" y="-1" relative="1" as="geometry">
            <mxPoint x="1" y="-12" as="offset" />
          </mxGeometry>
        </mxCell>
        <mxCell id="y2yLQSYUWb60mJqoII2E-9" style="edgeStyle=orthogonalEdgeStyle;rounded=0;orthogonalLoop=1;jettySize=auto;html=1;entryX=0.75;entryY=0;entryDx=0;entryDy=0;" parent="1" source="IMV991JVtr9X0o2-LDnY-1" target="IMV991JVtr9X0o2-LDnY-34" edge="1">
          <mxGeometry relative="1" as="geometry">
            <Array as="points">
              <mxPoint x="589" y="260" />
            </Array>
          </mxGeometry>
        </mxCell>
        <mxCell id="y2yLQSYUWb60mJqoII2E-11" value="datas" style="edgeLabel;html=1;align=center;verticalAlign=middle;resizable=0;points=[];" parent="y2yLQSYUWb60mJqoII2E-9" vertex="1" connectable="0">
          <mxGeometry x="-0.7072" y="2" relative="1" as="geometry">
            <mxPoint as="offset" />
          </mxGeometry>
        </mxCell>
        <mxCell id="y2yLQSYUWb60mJqoII2E-28" style="edgeStyle=orthogonalEdgeStyle;rounded=0;orthogonalLoop=1;jettySize=auto;html=1;entryX=1;entryY=0.539;entryDx=0;entryDy=0;entryPerimeter=0;" parent="1" target="IMV991JVtr9X0o2-LDnY-6" edge="1">
          <mxGeometry relative="1" as="geometry">
            <mxPoint x="780" y="460" as="sourcePoint" />
            <mxPoint x="273" y="360" as="targetPoint" />
            <Array as="points">
              <mxPoint x="330" y="460" />
              <mxPoint x="330" y="354" />
            </Array>
          </mxGeometry>
        </mxCell>
      </root>
    </mxGraphModel>
  </diagram>
</mxfile>
